<svg xmlns="http://www.w3.org/2000/svg" xmlns:xlink="http://www.w3.org/1999/xlink" id="ухоЛ1" x="0" y="0" version="1.1" viewBox="0 0 1107.8 1116" style="enable-background:new 0 0 1107.8 1116" xml:space="preserve"><style type="text/css">.st0{fill:#fff}.st1{fill:#10273d}.st2{fill:#2b5b80}.st3{fill:#1d3d56}.st4{fill:#7c8fa5}.st5{fill:#255372}.st6{fill:#142f4d}</style><g><polygon points="1019 830 1019 293 553.9 24.5 88.8 293 88.8 830 553.9 1098.5" class="st0"/><g><path d="M878.4,828.4c0,0-317.9,136.2-322.3,136.2V721.5L878.4,828.4z" class="st1"/><path d="M233.8,828.4c0,0,317.9,136.2,322.3,136.2V721.5L233.8,828.4z" class="st2"/><polygon points="847.6 529.6 878.4 828.4 556.1 721.5 723.1 434.3" class="st3"/><polygon points="260.2 529.6 233.8 828.4 556.1 721.5 384.7 434.3" class="st4"/><polygon points="723.1 434.3 633 370.6 556.1 370.6 551.7 370.6 474.8 370.6 384.7 434.3 556.1 721.5" class="st5"/><polygon points="723.1 434.4 847.6 529.6 895.2 256.4" class="st1"/><polygon points="633 370.6 723.1 434.4 895.2 256.4" class="st2"/><polygon points="384.7 434.4 260.2 529.6 212.6 256.4" class="st2"/><polygon points="474.8 370.6 384.7 434.4 212.6 256.4" class="st6"/></g></g></svg>